<svg xmlns="http://www.w3.org/2000/svg" viewBox="0 0 64 64" role="img" aria-label="SenBonsPlans">
  <rect width="64" height="64" rx="14" fill="#c1274f"/>
  <path d="M32 14c-7.2 0-13 4.4-13 10.5 0 4.6 3.2 7.5 9.4 9.6l3.6 1.2c4.6 1.5 6.5 2.8 6.5 5.4 0 2.8-2.7 4.7-7 4.7-4.6 0-8-2.1-9.4-5.7l-4.7 2.7C19.4 47.4 24.6 51 32 51c8.1 0 13.6-4.2 13.6-10.6 0-4.9-3.3-7.9-9.7-10.1l-3.4-1.1c-4.2-1.4-6-2.6-6-4.9 0-2.5 2.4-4.2 6.1-4.2 3.6 0 6.5 1.8 7.7 4.7l4.6-2.7C43.2 17.5 38.4 14 32 14Z" fill="#fdf6ee"/>
</svg>
